<?xml version="1.0" encoding="UTF-8"?>
<svg id="_レイヤー_1" data-name="レイヤー_1" xmlns="http://www.w3.org/2000/svg" version="1.1" viewBox="0 0 1000 1000">
  <!-- Generator: Adobe Illustrator 30.0.0, SVG Export Plug-In . SVG Version: 2.1.1 Build 123)  -->
  <g id="_レイヤー_2">
    <path d="M626.53,32.52h-253.07c-1.89,0-3.75.45-5.44,1.3l-218.41,111.01c-2.07,1.05-3.79,2.68-4.95,4.7L18.64,367.81c-1.05,1.82-1.61,3.89-1.61,6v252.39c0,2.11.55,4.18,1.61,6l126.19,218.57c1.05,1.82,2.57,3.34,4.39,4.39l218.57,126.19c1.82,1.05,3.89,1.61,6,1.61h252.39c2.11,0,4.18-.55,6-1.61l218.57-126.19c1.82-1.05,3.34-2.57,4.39-4.39l126.19-218.57c1.05-1.82,1.61-3.89,1.61-6v-252.39c0-2.11-.55-4.18-1.61-6l-126.02-218.28c-1.16-2.01-2.88-3.64-4.95-4.7l-218.41-111.01c-1.68-.86-3.55-1.3-5.44-1.3h.02Z" fill="#222"/>
    <path d="M510.44,774.52c0,49.22,55.45,83.43,117.93,83.43l-.3,18.09h-292.84l.3-18.09c62.48,0,125.5-34.21,125.5-83.43v-489.69h-91.02c-51.85,0-58.76,31.69-74.2,112.55h-33.81l30.38-139.67h389.24l17.22,172.08h-33.81c-15.44-82.27-22.36-144.96-65-144.96h-89.57v489.69h-.02Z" fill="#ddd"/>
  </g>
</svg>